<?xml version="1.0" encoding="UTF-8" standalone="no"?>
<!-- Generator: Adobe Illustrator 16.0.0, SVG Export Plug-In . SVG Version: 6.00 Build 0)  -->

<svg
   xmlns:dc="http://purl.org/dc/elements/1.1/"
   xmlns:cc="http://creativecommons.org/ns#"
   xmlns:rdf="http://www.w3.org/1999/02/22-rdf-syntax-ns#"
   xmlns:svg="http://www.w3.org/2000/svg"
   xmlns="http://www.w3.org/2000/svg"
   xmlns:sodipodi="http://sodipodi.sourceforge.net/DTD/sodipodi-0.dtd"
   xmlns:inkscape="http://www.inkscape.org/namespaces/inkscape"
   version="1.1"
   id="Layer_1"
   x="0px"
   y="0px"
   width="23"
   height="23"
   viewBox="0 0 23 23"
   enable-background="new 0 0 21.222 19.66"
   xml:space="preserve"
   inkscape:version="0.48.4 r9939"
   sodipodi:docname="call.svg"><metadata
     id="metadata5334"><rdf:RDF><cc:Work
         rdf:about=""><dc:format>image/svg+xml</dc:format><dc:type
           rdf:resource="http://purl.org/dc/dcmitype/StillImage" /></cc:Work></rdf:RDF></metadata><defs
     id="defs5332" /><sodipodi:namedview
     pagecolor="#ffffff"
     bordercolor="#666666"
     borderopacity="1"
     objecttolerance="10"
     gridtolerance="10"
     guidetolerance="10"
     inkscape:pageopacity="0"
     inkscape:pageshadow="2"
     inkscape:window-width="1360"
     inkscape:window-height="747"
     id="namedview5330"
     showgrid="false"
     inkscape:zoom="12.004069"
     inkscape:cx="10.612853"
     inkscape:cy="9.8299999"
     inkscape:window-x="0"
     inkscape:window-y="15"
     inkscape:window-maximized="0"
     inkscape:current-layer="Layer_1"
     inkscape:snap-center="false"
     inkscape:snap-object-midpoints="true" /><path
     d="m 18.295927,0.92879297 c 0,0 -0.501,-0.1120001 -0.723,0.47300003 l -1.782,4.204 c 0,0 -0.334,0.611 0.167,1.196 l 1.28,1.6699996 c 0,0 0.473,0.446 0.111,0.975 -0.362,0.528 -2.255,4.0360014 -7.154,6.2350014 0,0 -0.6110005,0.417 -1.0560005,-0.195 -0.446,-0.612 -1.811,-2.839 -2.674,-2.365 l -4.509,2.115 c 0,0 -0.39,0.027 -0.306,0.835 0.085,0.806 -0.027,4.508 5.29,4.508 6.3480005,0 15.9220005,-9.061 15.9220005,-14.809001 0,0 0,-4.84300003 -2.979,-4.84300003 h -1.587 z"
     id="path5328"
     inkscape:connector-curvature="0"
     style="fill:#ffffff" /></svg>