<?xml version="1.0" encoding="UTF-8" standalone="no"?>
<!-- Generator: Adobe Illustrator 16.0.0, SVG Export Plug-In . SVG Version: 6.00 Build 0)  -->

<svg
   xmlns:dc="http://purl.org/dc/elements/1.1/"
   xmlns:cc="http://creativecommons.org/ns#"
   xmlns:rdf="http://www.w3.org/1999/02/22-rdf-syntax-ns#"
   xmlns:svg="http://www.w3.org/2000/svg"
   xmlns="http://www.w3.org/2000/svg"
   xmlns:sodipodi="http://sodipodi.sourceforge.net/DTD/sodipodi-0.dtd"
   xmlns:inkscape="http://www.inkscape.org/namespaces/inkscape"
   version="1.1"
   id="Layer_1"
   x="0px"
   y="0px"
   width="14"
   height="14"
   viewBox="0 0 14 14"
   enable-background="new 0 0 10.664 11.333"
   xml:space="preserve"
   inkscape:version="0.48.4 r9939"
   sodipodi:docname="emoticon.svg"><metadata
     id="metadata6104"><rdf:RDF><cc:Work
         rdf:about=""><dc:format>image/svg+xml</dc:format><dc:type
           rdf:resource="http://purl.org/dc/dcmitype/StillImage" /></cc:Work></rdf:RDF></metadata><defs
     id="defs6102" /><sodipodi:namedview
     pagecolor="#ffffff"
     bordercolor="#666666"
     borderopacity="1"
     objecttolerance="10"
     gridtolerance="10"
     guidetolerance="10"
     inkscape:pageopacity="0"
     inkscape:pageshadow="2"
     inkscape:window-width="1360"
     inkscape:window-height="747"
     id="namedview6100"
     showgrid="false"
     showguides="true"
     inkscape:guide-bbox="true"
     inkscape:snap-object-midpoints="true"
     inkscape:zoom="20.824142"
     inkscape:cx="5.3319998"
     inkscape:cy="5.6665001"
     inkscape:window-x="0"
     inkscape:window-y="15"
     inkscape:window-maximized="0"
     inkscape:current-layer="Layer_1" /><path
     d="m 6.9999998,12.666501 c -2.945,-10e-4 -5.33,-2.386002 -5.332,-5.3320014 h 1.582 c 0,1.04 0.418,1.9709999 1.098,2.6529999 0.682,0.6800005 1.613,1.0980015 2.652,1.0980015 1.039,0 1.973,-0.418001 2.6540002,-1.0980015 0.68,-0.682 1.098,-1.6129999 1.098,-2.6519999 h 1.58 c 0,2.9449994 -2.387,5.3300014 -5.3320002,5.3310014 z m -1.582,-9.8330014 c 0,0.826 -0.672,1.5 -1.5,1.5 -0.828,0 -1.5,-0.674 -1.5,-1.5 0,-0.83 0.672,-1.5000001 1.5,-1.5000001 0.828,0 1.5,0.669 1.5,1.5000001 z m 6.0000002,0 c 0,0.826 -0.672,1.5 -1.5,1.5 -0.828,0 -1.5000002,-0.674 -1.5000002,-1.5 0,-0.83 0.6720002,-1.5000001 1.5000002,-1.5000001 0.828,0 1.5,0.669 1.5,1.5000001 z"
     id="path6098"
     inkscape:connector-curvature="0"
     style="fill:#ffffff" /></svg>