<?xml version="1.0" encoding="UTF-8" standalone="no"?>
<!-- Created with Inkscape (http://www.inkscape.org/) -->

<svg
   xmlns:dc="http://purl.org/dc/elements/1.1/"
   xmlns:cc="http://creativecommons.org/ns#"
   xmlns:rdf="http://www.w3.org/1999/02/22-rdf-syntax-ns#"
   xmlns:svg="http://www.w3.org/2000/svg"
   xmlns="http://www.w3.org/2000/svg"
   xmlns:sodipodi="http://sodipodi.sourceforge.net/DTD/sodipodi-0.dtd"
   xmlns:inkscape="http://www.inkscape.org/namespaces/inkscape"
   width="15"
   height="15"
   id="svg3853"
   version="1.1"
   inkscape:version="0.48.4 r9939"
   sodipodi:docname="offline.svg">
  <defs
     id="defs3855" />
  <sodipodi:namedview
     id="base"
     pagecolor="#ffffff"
     bordercolor="#666666"
     borderopacity="1.0"
     inkscape:pageopacity="0.0"
     inkscape:pageshadow="2"
     inkscape:zoom="29.473549"
     inkscape:cx="2.0713928"
     inkscape:cy="7.5000162"
     inkscape:document-units="px"
     inkscape:current-layer="layer1"
     showgrid="false"
     inkscape:window-width="1360"
     inkscape:window-height="747"
     inkscape:window-x="0"
     inkscape:window-y="15"
     inkscape:window-maximized="0"
     fit-margin-top="0"
     fit-margin-left="0"
     fit-margin-right="0"
     fit-margin-bottom="0"
     inkscape:snap-center="true"
     inkscape:snap-object-midpoints="true"
     showguides="true"
     inkscape:guide-bbox="true" />
  <metadata
     id="metadata3858">
    <rdf:RDF>
      <cc:Work
         rdf:about="">
        <dc:format>image/svg+xml</dc:format>
        <dc:type
           rdf:resource="http://purl.org/dc/dcmitype/StillImage" />
        <dc:title></dc:title>
      </cc:Work>
    </rdf:RDF>
  </metadata>
  <g
     inkscape:label="Layer 1"
     inkscape:groupmode="layer"
     id="layer1"
     transform="translate(-354.52543,-362.83678)">
    <path
       style="fill:#cebf44;fill-opacity:1;stroke:none"
       d="M 7.5 2.96875 C 5.0028323 2.96875 2.96875 5.0028325 2.96875 7.5 C 2.96875 9.9971675 5.0028323 12.03125 7.5 12.03125 C 9.9971677 12.03125 12.03125 9.9971675 12.03125 7.5 C 12.03125 5.0028325 9.9971677 2.96875 7.5 2.96875 z M 7.5 4.5 C 9.1539433 4.5 10.5 5.8460568 10.5 7.5 L 4.5 7.5 C 4.5 5.8460568 5.8460567 4.5 7.5 4.5 z "
       transform="translate(354.52543,362.83678)"
       id="path4475" />
    <path
       sodipodi:type="arc"
       style="fill:none;stroke:#cebf44;stroke-width:1.84496582000000009;stroke-miterlimit:4;stroke-opacity:1;stroke-dasharray:none"
       id="path3065"
       sodipodi:cx="411.77835"
       sodipodi:cy="251.60245"
       sodipodi:rx="9.4727678"
       sodipodi:ry="9.4727678"
       d="m 421.25112,251.60245 c 0,5.23166 -4.2411,9.47277 -9.47277,9.47277 -5.23166,0 -9.47277,-4.24111 -9.47277,-9.47277 0,-5.23167 4.24111,-9.47277 9.47277,-9.47277 5.23167,0 9.47277,4.2411 9.47277,9.47277 z"
       transform="matrix(0.72148332,0,0,0.72148332,64.934223,188.80981)" />
  </g>
  <g
     inkscape:groupmode="layer"
     id="layer2"
     inkscape:label="Layer" />
</svg>
