<?xml version="1.0" encoding="UTF-8" standalone="no"?>
<!-- Generator: Adobe Illustrator 16.0.0, SVG Export Plug-In . SVG Version: 6.00 Build 0)  -->

<svg
   xmlns:dc="http://purl.org/dc/elements/1.1/"
   xmlns:cc="http://creativecommons.org/ns#"
   xmlns:rdf="http://www.w3.org/1999/02/22-rdf-syntax-ns#"
   xmlns:svg="http://www.w3.org/2000/svg"
   xmlns="http://www.w3.org/2000/svg"
   xmlns:sodipodi="http://sodipodi.sourceforge.net/DTD/sodipodi-0.dtd"
   xmlns:inkscape="http://www.inkscape.org/namespaces/inkscape"
   version="1.1"
   id="Layer_1"
   x="0px"
   y="0px"
   width="40"
   height="40"
   viewBox="0 0 39.999999 39.999999"
   enable-background="new 0 0 15.402 15.918"
   xml:space="preserve"
   inkscape:version="0.48.4 r9939"
   sodipodi:docname="group_large.svg"><metadata
     id="metadata3095"><rdf:RDF><cc:Work
         rdf:about=""><dc:format>image/svg+xml</dc:format><dc:type
           rdf:resource="http://purl.org/dc/dcmitype/StillImage" /><dc:title></dc:title></cc:Work></rdf:RDF></metadata><defs
     id="defs3093" /><sodipodi:namedview
     pagecolor="#ffffff"
     bordercolor="#666666"
     borderopacity="1"
     objecttolerance="10"
     gridtolerance="10"
     guidetolerance="10"
     inkscape:pageopacity="0"
     inkscape:pageshadow="2"
     inkscape:window-width="1360"
     inkscape:window-height="747"
     id="namedview3091"
     showgrid="false"
     inkscape:zoom="8.7950746"
     inkscape:cx="-16.309901"
     inkscape:cy="17.45699"
     inkscape:window-x="0"
     inkscape:window-y="15"
     inkscape:window-maximized="0"
     inkscape:current-layer="Layer_1" /><g
     id="g5173"><path
       d="m 24.486855,28.674455 c 12.231588,4.224148 8.297224,11.325543 8.297224,11.325543 H 6.923749 c 0,0 -2.0074347,-7.943209 8.998397,-11.325543 0,0 4.368054,3.548184 8.564709,0 z"
       id="path3079"
       inkscape:connector-curvature="0"
       style="fill:#000000;fill-opacity:1" /><path
       d="m 12.777252,16.791053 c 0,0 0.701174,9.895715 7.253254,9.895715 6.55208,0 7.338952,-9.217238 7.338952,-9.217238 0,0 0.262291,-8.0261336 -7.338952,-8.0261336 -7.601244,0 -7.253254,7.3476566 -7.253254,7.3476566 z"
       id="path3081"
       inkscape:connector-curvature="0"
       style="fill:#000000;fill-opacity:1" /><path
       d="M 8.7234285,18.283703 C 8.7104438,18.052518 8.6818775,16.977006 8.964944,15.564768 7.6119382,15.31348 6.7809173,14.720441 6.7809173,14.720441 -1.399444,17.346399 0.10937822,22.837038 0.10937822,22.837038 H 9.5908065 C 8.9026174,20.550319 8.746801,18.627967 8.7286224,18.376679 l -0.00519,-0.09298 z"
       id="path3083"
       inkscape:connector-curvature="0"
       style="fill:#000000;fill-opacity:1" /><path
       d="m 31.423282,18.901871 v 0.103028 l -0.01039,0.100515 c -0.09089,1.072999 -0.329811,2.372157 -0.753112,3.731624 h 9.229525 c 0,0 1.514016,-5.493152 -6.666346,-8.116597 0,0 -0.828423,0.588014 -2.168445,0.841814 0.397332,1.718809 0.379154,3.068225 0.368766,3.339616 z"
       id="path3085"
       inkscape:connector-curvature="0"
       style="fill:#000000;fill-opacity:1" /><path
       d="m 15.332641,6.3450174 c 0.04934,-0.3065712 0.06752,-0.4950371 0.06752,-0.4950371 0,0 0.186979,-5.84998087960001 -5.323728,-5.84998087960001 C 4.5657274,-5.7960001e-7 4.8176306,5.3549433 4.8176306,5.3549433 c 0,0 0.4674492,6.5485607 4.6251503,7.1617037 C 9.8998424,11.22754 10.63997,9.845457 11.83716,8.6342496 12.618839,7.8426929 13.756298,6.9707241 15.332641,6.3450174 z"
       id="path3087"
       inkscape:connector-curvature="0"
       style="fill:#000000;fill-opacity:1" /><path
       d="m 30.535128,12.539263 c 4.321309,-0.42719 4.853681,-6.6892827 4.853681,-6.6892827 0,0 0.18698,-5.84998087960001 -5.326324,-5.84998087960001 -5.50811,0 -5.253609,5.35494387960001 -5.253609,5.35494387960001 0,0 0.03376,0.4598567 0.158413,1.1408468 1.347812,0.598065 2.350231,1.3770573 3.064389,2.0907148 1.215368,1.2162332 1.999644,2.6184191 2.50345,3.9527581 z"
       id="path3089"
       inkscape:connector-curvature="0"
       style="fill:#000000;fill-opacity:1" /></g></svg>