<?xml version="1.0" encoding="UTF-8" standalone="no"?>
<!-- Generator: Adobe Illustrator 16.0.0, SVG Export Plug-In . SVG Version: 6.00 Build 0)  -->

<svg
   xmlns:dc="http://purl.org/dc/elements/1.1/"
   xmlns:cc="http://creativecommons.org/ns#"
   xmlns:rdf="http://www.w3.org/1999/02/22-rdf-syntax-ns#"
   xmlns:svg="http://www.w3.org/2000/svg"
   xmlns="http://www.w3.org/2000/svg"
   xmlns:sodipodi="http://sodipodi.sourceforge.net/DTD/sodipodi-0.dtd"
   xmlns:inkscape="http://www.inkscape.org/namespaces/inkscape"
   version="1.1"
   id="Layer_1"
   x="0px"
   y="0px"
   width="15.402px"
   height="15.918px"
   viewBox="0 0 15.402 15.918"
   enable-background="new 0 0 15.402 15.918"
   xml:space="preserve"
   inkscape:version="0.48.4 r9939"
   sodipodi:docname="group.svg"><metadata
     id="metadata3095"><rdf:RDF><cc:Work
         rdf:about=""><dc:format>image/svg+xml</dc:format><dc:type
           rdf:resource="http://purl.org/dc/dcmitype/StillImage" /></cc:Work></rdf:RDF></metadata><defs
     id="defs3093" /><sodipodi:namedview
     pagecolor="#ffffff"
     bordercolor="#666666"
     borderopacity="1"
     objecttolerance="10"
     gridtolerance="10"
     guidetolerance="10"
     inkscape:pageopacity="0"
     inkscape:pageshadow="2"
     inkscape:window-width="1360"
     inkscape:window-height="747"
     id="namedview3091"
     showgrid="false"
     inkscape:zoom="8.7950746"
     inkscape:cx="5.6910492"
     inkscape:cy="17.45699"
     inkscape:window-x="0"
     inkscape:window-y="15"
     inkscape:window-maximized="0"
     inkscape:current-layer="Layer_1" /><g
     id="g3077"><path
       d="M9.429,11.411c4.71,1.681,3.195,4.507,3.195,4.507H2.666c0,0-0.773-3.161,3.465-4.507   C6.131,11.411,7.813,12.823,9.429,11.411z"
       id="path3079"
       fill="#FFFFFF" /><path
       d="M4.92,6.682c0,0,0.27,3.938,2.793,3.938s2.826-3.668,2.826-3.668s0.101-3.194-2.826-3.194   S4.92,6.682,4.92,6.682z"
       id="path3081"
       fill="#FFFFFF" /><path
       d="M3.359,7.276c-0.005-0.092-0.016-0.52,0.093-1.082c-0.521-0.1-0.841-0.336-0.841-0.336   c-3.15,1.045-2.569,3.23-2.569,3.23h3.651C3.428,8.178,3.368,7.413,3.361,7.313L3.359,7.276z"
       id="path3083"
       fill="#FFFFFF" /><path
       d="M12.1,7.522v0.041l-0.004,0.04c-0.035,0.427-0.127,0.944-0.29,1.485h3.554c0,0,0.583-2.186-2.567-3.23   c0,0-0.319,0.234-0.835,0.335C12.111,6.877,12.104,7.414,12.1,7.522z"
       id="path3085"
       fill="#FFFFFF" /><path
       d="M5.904,2.525C5.923,2.403,5.93,2.328,5.93,2.328S6.002,0,3.88,0S1.855,2.131,1.855,2.131   s0.18,2.606,1.781,2.85c0.176-0.513,0.461-1.063,0.922-1.545C4.859,3.121,5.297,2.774,5.904,2.525z"
       id="path3087"
       fill="#FFFFFF" /><path
       d="M11.758,4.99c1.664-0.17,1.869-2.662,1.869-2.662S13.699,0,11.576,0C9.455,0,9.553,2.131,9.553,2.131   s0.013,0.183,0.061,0.454c0.519,0.238,0.905,0.548,1.18,0.832C11.262,3.901,11.564,4.459,11.758,4.99z"
       id="path3089"
       fill="#FFFFFF" /></g></svg>